<svg xmlns="http://www.w3.org/2000/svg" viewBox="0 0 400 400"><g id="svgg"><path id="path0" d="M191.000 12.409 C 59.267 19.951,-23.957 153.608,27.716 274.642 C 31.293 283.021,31.682 283.384,34.933 281.375 C 42.852 276.480,51.309 262.539,57.264 244.561 C 58.670 240.317,58.689 239.947,57.703 236.140 C 35.692 151.195,95.094 64.766,182.663 54.326 C 276.741 43.110,356.601 122.943,345.629 217.238 L 344.593 226.143 347.992 236.168 C 349.861 241.683,351.990 248.776,352.723 251.931 C 354.837 261.025,367.542 276.675,371.561 275.133 C 374.249 274.101,382.618 246.596,385.298 229.981 C 404.223 112.670,308.670 5.671,191.000 12.409 M229.512 107.686 C 227.480 108.541,222.667 115.469,222.667 117.539 C 222.667 119.082,226.809 122.200,232.554 124.980 C 249.728 133.291,250.179 139.351,235.037 158.333 C 226.043 169.608,225.972 170.492,233.421 178.335 C 239.908 185.163,242.473 186.130,247.723 183.727 C 252.810 181.398,253.249 181.642,258.223 189.565 C 263.858 198.542,264.865 200.600,275.876 225.667 C 293.733 266.320,293.733 268.779,275.871 286.134 L 266.470 295.268 267.672 297.134 C 269.626 300.170,274.075 305.333,274.737 305.333 C 275.074 305.333,279.279 303.679,284.080 301.658 C 308.606 291.332,328.517 289.860,352.000 296.638 C 355.850 297.749,359.193 298.660,359.429 298.663 C 359.872 298.667,366.000 288.160,366.000 287.397 C 366.000 287.161,364.181 285.643,361.958 284.025 C 350.062 275.362,343.878 266.438,340.359 252.862 C 336.257 237.031,330.588 223.085,314.673 189.667 C 304.754 168.840,298.599 155.182,294.093 144.000 C 292.410 139.823,292.344 139.155,292.274 125.446 L 292.202 111.226 290.268 109.951 C 287.936 108.414,284.907 108.339,280.000 109.698 C 270.641 112.289,252.131 112.071,241.000 109.239 C 238.067 108.492,234.731 107.649,233.588 107.364 C 232.278 107.038,230.770 107.157,229.512 107.686 M91.740 117.063 C 86.527 124.853,86.220 124.185,96.596 127.646 C 100.485 128.943,104.684 130.625,105.928 131.384 L 108.190 132.763 107.790 137.952 C 107.360 143.530,105.176 151.012,99.895 165.000 C 96.067 175.138,96.052 175.940,99.667 177.317 C 101.133 177.876,104.433 179.586,107.000 181.117 C 117.256 187.235,119.620 186.817,123.744 178.155 C 129.308 166.472,129.628 166.459,140.441 177.500 C 163.831 201.383,174.928 227.628,186.071 285.420 C 188.843 299.797,189.009 302.550,187.578 310.459 L 187.194 312.586 194.563 316.281 L 201.931 319.977 205.517 314.488 C 210.246 307.248,216.947 300.834,228.333 292.646 C 233.467 288.955,238.397 285.406,239.290 284.761 L 240.914 283.587 239.729 279.294 C 239.077 276.932,236.472 268.644,233.939 260.875 C 223.326 228.327,222.509 214.204,230.339 198.656 C 233.444 192.490,233.355 190.871,229.626 185.645 C 222.422 175.550,217.464 174.755,209.362 182.399 C 206.874 184.746,204.399 186.667,203.863 186.667 C 202.371 186.667,188.126 165.939,177.225 147.906 C 176.037 145.941,171.426 137.133,166.979 128.333 L 158.892 112.333 146.613 111.922 C 139.859 111.696,125.744 111.275,115.246 110.985 L 96.159 110.459 91.740 117.063 M93.391 187.425 C 89.230 191.891,82.408 208.122,73.055 235.805 C 60.835 271.978,54.865 282.477,41.167 291.888 C 37.314 294.536,37.303 293.912,41.311 300.167 C 45.054 306.009,45.074 306.018,48.880 303.462 C 59.863 296.086,79.973 292.130,97.262 293.945 C 105.455 294.804,106.000 294.561,106.000 290.046 C 106.000 286.520,105.361 285.482,101.929 283.440 C 96.391 280.144,91.749 273.722,92.336 270.167 C 92.502 269.158,93.110 264.926,93.686 260.761 C 94.902 251.973,97.918 241.560,102.734 229.522 C 110.308 210.589,114.763 197.807,114.355 196.182 C 114.033 194.900,112.270 193.764,105.808 190.675 C 95.311 185.658,95.091 185.600,93.391 187.425 M311.667 305.747 C 301.383 307.599,298.666 308.757,291.920 314.162 C 236.615 358.475,158.435 357.313,104.708 311.380 L 98.415 306.000 88.374 306.009 C 73.818 306.021,60.635 309.215,54.358 314.250 L 52.382 315.835 54.344 318.417 C 69.377 338.206,96.910 359.445,122.520 371.010 C 202.005 406.904,297.633 382.829,349.209 313.939 C 352.718 309.253,352.843 309.641,347.297 307.989 C 335.802 304.566,322.776 303.746,311.667 305.747 " stroke="none" fill="#000000" fill-rule="evenodd"></path></g></svg>